<svg xmlns="http://www.w3.org/2000/svg" viewBox="0 0 24 24" fill="none">
  <path d="M19.321 5.562C18.7206 4.98345 17.8873 4.73633 16.714 4.73633H7.286C6.11267 4.73633 5.27867 4.98345 4.679 5.562C4.07933 6.14055 3.75 7.00973 3.75 8.14052V15.8587C3.75 16.9895 4.07933 17.859 4.679 18.4375C5.27867 19.0161 6.11267 19.2632 7.286 19.2632H16.714C17.8873 19.2632 18.7213 19.0161 19.321 18.4375C19.9207 17.859 20.25 16.9895 20.25 15.8587V8.14052C20.25 7.00973 19.9207 6.14055 19.321 5.562Z" fill="#FF0050" />
  <path d="M9.16797 15.8164V8.18262L16.1078 12.8383L9.16797 15.8164Z" fill="white" />
</svg> 